<?xml version="1.0" encoding="utf-8"?>
<!-- Generator: Adobe Illustrator 18.1.1, SVG Export Plug-In . SVG Version: 6.00 Build 0)  -->
<svg version="1.1" id="Layer_1" xmlns="http://www.w3.org/2000/svg" xmlns:xlink="http://www.w3.org/1999/xlink" x="0px" y="0px"
	 viewBox="0 0 600 600" enable-background="new 0 0 600 600" xml:space="preserve">
<path fill="#333333" stroke="#333333" stroke-width="5" stroke-linejoin="round" stroke-miterlimit="10" d="M177.5904,174.9115
	c-3.9138-6.7752-15.2163-4.9624-22.9449-5.5546c4.7419,0.3633,7.105,67.3259,7.2652,74.0954
	c0.5735,24.2308-1.8556,47.9907-1.8891,72.196c-0.0654,47.1692,1.3281,94.3363,4.144,141.4211
	c0.6904,11.5445-0.1548,12.2591,10.6333,13.1113c7.6529,0.6045,15.2845,1.2821,22.915,2.1356
	c10.5475,1.1798,21.2726,3.3578,31.8872,3.7338c29.128,1.0345,58.2646,1.8263,87.4048,2.4228
	c58.1107,1.1896,116.2411,1.642,174.3628,1.2198c7.0623-0.0513-0.6856-168.9827-3.3804-181.3196
	c-2.4368-11.1562-6.6622-21.9834-7.5446-33.3684c-2.3592-30.4392,0.4413-60.8818-1.4077-91.4844L177.5904,174.9115z"/>
<path fill="#B3B3B3" stroke="#333333" stroke-width="5" stroke-linejoin="round" stroke-miterlimit="10" d="M439.284,184.2232
	c15.6185-1.3161,54.1551,3.6891,51.3379-20.5071c-1.6384-14.0711-11.1307-27.5837-17.8693-39.5222
	c-1.3022-2.307-2.6586-4.6774-4.7523-6.3003c-1.6101-1.2481-3.5547-1.9722-5.4675-2.6731
	c-12.4782-4.5719-25.1002-8.9492-38.1828-11.2846c-11.8255-2.111-23.8806-2.5275-35.8883-2.8648
	c-27.1623-0.7631-54.3352-1.1472-81.5081-1.1521c-47.9615-0.0088-97.3524,1.4612-141.3318,20.5954
	c-2.8555,1.2424-5.7329,2.5911-8.0112,4.7141c-2.9053,2.7071-4.5955,6.4383-6.2092,10.0669
	c-9.9762,22.4322-21.3082,45.0381,13.5989,45.0381C165,180.3333,439.2838,184.2232,439.284,184.2232z"/>
<path fill="none" stroke="#1A1A1A" stroke-width="5" stroke-linejoin="round" stroke-miterlimit="10" d="M409.6572,249.4692
	c0,14.1788-24.6863,10.0319-50.505,9.1352c-38.5294-1.3381-77.104-0.4343-115.6561-0.6515
	c-4.7647-5.1834-1.2347-14.264,4.9355-17.655s13.6536-2.8417,20.6809-2.4073c42.7831,2.6446,85.9774-2.446,128.4566,3.2898
	C402.8494,241.8934,409.4192,244.1463,409.6572,249.4692z"/>
<path fill="#1A1A1A" d="M244.2835,257.9857c0.4402,49.7304,1.8296,99.4523,4.167,149.1297
	c52.4984-4.5038,105.4075-4.2087,157.8524,0.8804c4.0479-49.5118,8.0375-99.9402-2.9399-148.3891L244.2835,257.9857z"/>
<path fill="none" stroke="#1A1A1A" stroke-width="5" stroke-linejoin="round" stroke-miterlimit="10" d="M176.6799,131.0365
	c23.6794,8.3127,42.741,7.6184,67.6036,11.0345c13.3292,1.8314,33.3396,2.297,46.7068,3.8269
	c14.0982,1.6135,28.3493,0.3916,42.4867-0.8313c25.2034-2.1802,50.4069-4.3603,75.6103-6.5405
	c16.726-1.4468,33.7585-2.9662,49.2676-9.3942"/>
<path fill="#4D4D4D" stroke="#1A1A1A" stroke-width="5" stroke-linejoin="round" stroke-miterlimit="10" d="M420.5,155.996
	c-6,0.0322-13.5821,0.0643-20.486,0.0965c1.0979,5.3377,1.8697,10.7657,2.0808,16.2111c5.9386,0.0018,11.7081,0.0036,17.6467,0.0054
	c0.0325-6.001,0.7585-8.1829,0.7585-14.184V155.996z"/>
<path fill="#C1272D" stroke="#1A1A1A" stroke-width="5" stroke-linejoin="round" stroke-miterlimit="10" d="M451.0178,155.149
	c-7.1337,0.0181-14.2674,0.0362-21.4011,0.0544c0.3452,6.6407,0.6904,13.2814,1.0356,19.922
	c6.3769-1.6511,12.92-2.6594,19.4981-3.0048c-0.1493-5.6985-0.4336-9.2167,0.1371-15.2434L451.0178,155.149z"/>
</svg>
